# Blender 4.0.1
# www.blender.org
mtllib michi.mtl
o Cube.001
v 4.902817 0.946126 -0.350406
v 4.902817 3.806888 -0.350406
v -1.092324 7.500087 -0.350406
v 2.164597 7.500087 -0.350406
v -3.768656 0.974950 -0.350406
v 2.164597 -1.171435 -0.350406
v -1.092324 -1.171435 -0.350406
v -3.768656 3.835711 -0.350406
v -1.092324 7.500087 0.350406
v 4.902817 0.946126 0.350406
v 2.164597 7.500087 0.350406
v 4.902817 3.806888 0.350406
v -3.768656 0.974950 0.350406
v 2.164597 -1.171435 0.350406
v -3.768656 3.835711 0.350406
v -1.092324 -1.171435 0.350406
v 1.281228 7.500087 -0.350406
v 4.905754 1.829490 -0.350406
v 4.905754 4.690251 -0.350406
v -1.975692 7.500087 -0.350406
v -3.765720 4.719075 -0.350406
v -1.975692 -1.171435 -0.350406
v -3.765720 1.858314 -0.350406
v 1.281228 -1.171435 -0.350406
v 1.281228 7.500087 0.350406
v 4.905754 4.690251 0.350406
v 4.905754 1.829490 0.350406
v -1.975692 7.500087 0.350406
v -3.765720 4.719075 0.350406
v 1.281228 -1.171435 0.350406
v -3.765720 1.858314 0.350406
v -1.975692 -1.171435 0.350406
v 2.164597 -1.629984 -0.350406
v -4.227202 0.976474 -0.350406
v -4.227202 3.837235 -0.350406
v -1.092324 -1.629984 -0.350406
v -4.227202 3.837235 0.350406
v -1.092324 -1.629984 0.350406
v -4.227202 0.976474 0.350406
v 2.164597 -1.629984 0.350406
v -4.224266 1.859838 -0.350406
v -4.224266 4.720599 -0.350406
v -1.975692 -1.629984 -0.350406
v 1.281228 -1.629984 -0.350406
v -4.224266 1.859838 0.350406
v -4.224266 4.720599 0.350406
v 1.281228 -1.629984 0.350406
v -1.975692 -1.629984 0.350406
v -1.975692 1.852364 0.350406
v 1.281228 1.841538 0.350406
v -1.092324 1.849427 0.350406
v 1.857860 1.839621 0.350406
v 2.164597 1.838601 0.350406
v -1.975692 1.852364 -0.350406
v -1.667762 1.851340 -0.350406
v 1.281228 1.841538 -0.350406
v -1.092324 1.849427 -0.350406
v 2.164597 1.838601 -0.350406
v 1.588056 1.840518 -0.350406
v -1.975692 0.968990 -0.350406
v -1.092324 0.966054 -0.350406
v 1.281228 0.958164 -0.350406
v 1.498097 0.957443 -0.350406
v 2.164597 0.955228 -0.350406
v -1.310144 0.966778 0.350406
v -1.975692 0.968990 0.350406
v 2.164597 0.955228 0.350406
v 1.947880 0.955948 0.350406
v 1.281228 0.958164 0.350406
v -1.092324 0.966054 0.350406
v -1.975692 4.713125 0.350406
v 1.281228 4.702299 0.350406
v -1.092324 4.710189 0.350406
v -1.691688 4.712181 0.350406
v 2.164597 4.699363 0.350406
v 1.566335 4.701352 0.350406
v -1.376435 4.711133 -0.350406
v -1.975692 4.713125 -0.350406
v 1.281228 4.702299 -0.350406
v -1.092324 4.710189 -0.350406
v 2.164597 4.699363 -0.350406
v 1.879383 4.700311 -0.350406
v -1.975692 3.829751 -0.350406
v -1.466393 3.828059 -0.350406
v -1.092324 3.826815 -0.350406
v 1.281228 3.818926 -0.350406
v 1.789424 3.817236 -0.350406
v 2.164597 3.815989 -0.350406
v -1.601668 3.828508 0.350406
v -1.975692 3.829751 0.350406
v 2.164597 3.815989 0.350406
v 1.656355 3.817679 0.350406
v 1.281228 3.818926 0.350406
v -1.092324 3.826815 0.350406
v -1.092324 1.238603 0.350406
v -1.335395 1.214657 0.350406
v -1.975692 1.669950 -0.350406
v -1.689310 1.639814 -0.350406
vn -0.0000 -0.0000 1.0000
vn -1.0000 -0.0000 -0.0000
vn -0.0000 -0.0000 -1.0000
vn 1.0000 -0.0000 -0.0000
vn -0.0000 1.0000 -0.0000
vn -0.0000 -1.0000 -0.0000
vn 0.0033 1.0000 -0.0000
vn -0.0033 -1.0000 -0.0000
vn 1.0000 -0.0033 -0.0000
vn -1.0000 0.0033 -0.0000
vt 0.544567 0.750000
vt 0.625000 0.750000
vt 0.625000 1.000000
vt 0.544652 1.000000
vt 0.544625 0.919625
vt 0.436708 1.000000
vt 0.375000 1.000000
vt 0.375000 0.750000
vt 0.436624 0.750000
vt 0.436645 0.811645
vt 0.519184 1.000000
vt 0.462176 1.000000
vt 0.462091 0.750000
vt 0.519100 0.750000
vt 0.519148 0.894148
vt 0.444481 0.750000
vt 0.443791 0.818791
vt 0.625000 0.000000
vt 0.625000 0.250000
vt 0.544652 0.250000
vt 0.544652 0.000000
vt 0.436708 0.250000
vt 0.375000 0.250000
vt 0.375000 0.000000
vt 0.436708 0.000000
vt 0.462176 0.250000
vt 0.462176 0.000000
vt 0.519184 0.000000
vt 0.519184 0.250000
vt 0.375000 0.500000
vt 0.544567 0.500000
vt 0.625000 0.500000
vt 0.462091 0.500000
vt 0.519100 0.500000
vt 0.436624 0.500000
vt 0.544594 0.419594
vt 0.462147 0.337147
vt 0.519135 0.394135
vt 0.456048 0.331048
vt 0.456917 0.250000
vt 0.875000 0.500000
vt 0.875000 0.750000
vt 0.125000 0.500000
vt 0.125000 0.750000
vt 0.546057 0.750000
vt 0.545972 1.000000
vt 0.426607 1.000000
vt 0.426691 0.750000
vt 0.520504 1.000000
vt 0.452074 1.000000
vt 0.452133 0.827133
vt 0.452159 0.750000
vt 0.520589 0.750000
vt 0.539809 0.750000
vt 0.537129 1.000000
vt 0.545973 0.250000
vt 0.545973 0.000000
vt 0.426607 0.250000
vt 0.426607 0.000000
vt 0.520504 0.250000
vt 0.452075 0.250000
vt 0.452075 0.000000
vt 0.520504 0.000000
vt 0.546057 0.500000
vt 0.426692 0.500000
vt 0.452159 0.500000
vt 0.520589 0.500000
vt 0.545972 0.250000
vt 0.426624 0.301624
vt 0.452074 0.250000
vt 0.526841 0.500000
vt 0.529350 0.250000
vt 0.544255 0.750000
vt 0.544340 1.000000
vt 0.544312 0.919313
vt 0.518836 0.893836
vt 0.518872 1.000000
vt 0.461864 1.000000
vt 0.461809 0.836809
vt 0.461779 0.750000
vt 0.518788 0.750000
vt 0.436396 1.000000
vt 0.436312 0.750000
vt 0.436332 0.811332
vt 0.544340 0.250000
vt 0.544340 0.000000
vt 0.461864 0.250000
vt 0.461864 0.000000
vt 0.518872 0.000000
vt 0.518872 0.250000
vt 0.436396 0.000000
vt 0.436396 0.250000
vt 0.544255 0.500000
vt 0.436312 0.500000
vt 0.461779 0.500000
vt 0.518788 0.500000
vt 0.544282 0.419282
vt 0.436376 0.311376
vt 0.461835 0.336835
vt 0.518823 0.393823
vt 0.545973 0.250000
vt 0.545973 0.000000
vt 0.426606 0.000000
vt 0.426606 0.250000
vt 0.452075 0.000000
vt 0.520505 0.000000
vt 0.520505 0.250000
vt 0.452075 0.250000
vt 0.546056 0.500000
vt 0.426693 0.500000
vt 0.426693 0.750000
vt 0.452159 0.500000
vt 0.520590 0.500000
vt 0.520590 0.750000
vt 0.426691 0.500000
vt 0.520589 0.500000
vt 0.520504 0.250000
s 0
usemtl Material.010
f 73/1/1 9/2/1 28/3/1 71/4/1 74/5/1
f 66/6/1 32/7/1 16/8/1 70/9/1 65/10/1
f 90/11/1 49/12/1 51/13/1 94/14/1 89/15/1
f 95/16/1 51/13/1 49/12/1 66/6/1 65/10/1 96/17/1
f 74/5/1 89/15/1 94/14/1 73/1/1
f 65/10/1 70/9/1 95/16/1 96/17/1
f 74/5/1 71/4/1 90/11/1 89/15/1
f 28/18/2 20/19/2 78/20/2 71/21/2
f 60/22/2 22/23/2 32/24/2 66/25/2
f 54/26/2 49/27/2 90/28/2 83/29/2
f 22/23/3 7/30/3 36/30/3 43/23/3
f 80/31/4 3/32/4 9/2/4 73/1/4
f 94/14/4 51/13/4 57/33/4 85/34/4
f 70/9/4 16/8/4 7/30/4 61/35/4
f 20/19/3 3/32/3 80/31/3 77/36/3 78/20/3
f 7/30/3 22/23/3 60/22/3 61/35/3
f 57/33/3 55/37/3 54/26/3 83/29/3 84/38/3 85/34/3
f 54/26/3 55/37/3 98/39/3 97/40/3
f 78/20/3 77/36/3 84/38/3 83/29/3
f 85/34/3 84/38/3 77/36/3 80/31/3
f 61/35/3 60/22/3 97/40/3 98/39/3 55/37/3 57/33/3
f 3/32/5 20/41/5 28/42/5 9/2/5
f 43/43/6 36/30/6 38/8/6 48/44/6
f 16/8/1 32/7/1 48/7/1 38/8/1
f 32/24/2 22/23/2 43/23/2 48/24/2
f 7/30/4 16/8/4 38/8/4 36/30/4
f 67/45/1 10/2/1 27/3/1 53/46/1
f 49/47/1 31/7/1 13/8/1 66/48/1
f 50/49/1 51/50/1 95/51/1 70/52/1 69/53/1
f 68/54/1 67/45/1 53/46/1 52/55/1
f 52/55/1 50/49/1 69/53/1 68/54/1
f 27/18/7 18/19/7 58/56/7 53/57/7
f 54/58/7 23/23/7 31/24/7 49/59/7
f 56/60/7 57/61/7 51/62/7 50/63/7
f 23/23/3 5/30/3 34/30/3 41/23/3
f 64/64/8 1/32/8 10/2/8 67/45/8
f 13/8/8 5/30/8 60/65/8 66/48/8
f 69/53/8 70/52/8 61/66/8 62/67/8
f 58/68/3 18/19/3 1/32/3 64/64/3
f 60/65/3 5/30/3 23/23/3 54/58/3 97/69/3
f 62/67/3 61/66/3 57/70/3 56/60/3
f 64/64/3 63/71/3 59/72/3 58/68/3
f 56/60/3 59/72/3 63/71/3 62/67/3
f 1/32/9 18/41/9 27/42/9 10/2/9
f 41/43/10 34/30/10 39/8/10 45/44/10
f 13/8/1 31/7/1 45/7/1 39/8/1
f 31/24/7 23/23/7 41/23/7 45/24/7
f 5/30/8 13/8/8 39/8/8 34/30/8
f 75/73/1 11/2/1 25/3/1 72/74/1 76/75/1
f 92/76/1 93/77/1 50/78/1 52/79/1 53/80/1 91/81/1
f 69/82/1 30/7/1 14/8/1 67/83/1 68/84/1
f 75/73/1 76/75/1 92/76/1 91/81/1
f 76/75/1 72/74/1 93/77/1 92/76/1
f 25/18/2 17/19/2 79/85/2 72/86/2
f 56/87/2 50/88/2 93/89/2 86/90/2
f 24/23/2 30/24/2 69/91/2 62/92/2
f 24/23/3 6/30/3 33/30/3 44/23/3
f 81/93/4 4/32/4 11/2/4 75/73/4
f 67/83/4 14/8/4 6/30/4 64/94/4
f 91/81/4 53/80/4 58/95/4 88/96/4
f 17/19/3 4/32/3 81/93/3 82/97/3 79/85/3
f 6/30/3 24/23/3 62/92/3 63/98/3 64/94/3
f 58/95/3 59/99/3 56/87/3 86/90/3 87/100/3 88/96/3
f 79/85/3 82/97/3 87/100/3 86/90/3
f 88/96/3 87/100/3 82/97/3 81/93/3
f 4/32/5 17/41/5 25/42/5 11/2/5
f 44/43/6 33/30/6 40/8/6 47/44/6
f 14/8/1 30/7/1 47/7/1 40/8/1
f 30/24/2 24/23/2 44/23/2 47/24/2
f 6/30/4 14/8/4 40/8/4 33/30/4
f 12/2/1 26/3/1 75/46/1 91/45/1
f 71/47/1 29/7/1 15/8/1 90/48/1
f 72/49/1 73/50/1 94/52/1 93/53/1
f 26/18/7 19/19/7 81/101/7 75/102/7
f 21/23/7 29/24/7 71/103/7 78/104/7
f 73/105/7 72/106/7 79/107/7 80/108/7
f 21/23/3 8/30/3 35/30/3 42/23/3
f 88/109/8 2/32/8 12/2/8 91/45/8
f 15/8/8 8/30/8 83/110/8 90/111/8
f 85/112/8 86/113/8 93/114/8 94/52/8
f 81/68/3 19/19/3 2/32/3 88/109/3
f 8/30/3 21/23/3 78/58/3 83/115/3
f 86/116/3 85/112/3 80/108/3 79/117/3
f 2/32/9 19/41/9 26/42/9 12/2/9
f 42/43/10 35/30/10 37/8/10 46/44/10
f 15/8/1 29/7/1 46/7/1 37/8/1
f 29/24/7 21/23/7 42/23/7 46/24/7
f 8/30/8 15/8/8 37/8/8 35/30/8
